<?xml version="1.0" encoding="UTF-8" standalone="no"?>
<!DOCTYPE svg PUBLIC "-//W3C//DTD SVG 1.1//EN"
 "http://www.w3.org/Graphics/SVG/1.1/DTD/svg11.dtd">
<!-- Generated by graphviz version 2.40.1 (20161225.0304)
 -->
<!-- Title: dependencies Pages: 1 -->
<svg width="606pt" height="290pt"
 viewBox="0.00 0.00 606.00 290.00" xmlns="http://www.w3.org/2000/svg" xmlns:xlink="http://www.w3.org/1999/xlink">
<g id="graph0" class="graph" transform="scale(1 1) rotate(0) translate(4 286)">
<title>dependencies</title>
<polygon fill="#ffffff" stroke="transparent" points="-4,4 -4,-286 602,-286 602,4 -4,4"/>
<text text-anchor="start" x="278.0091" y="-42.4" font-family="sans-serif" font-weight="bold" font-size="14.00" fill="#000000">Legend</text>
<polygon fill="#ffffb3" stroke="transparent" points="65,-10 65,-30 85,-30 85,-10 65,-10"/>
<text text-anchor="start" x="88.629" y="-15.4" font-family="sans-serif" font-size="14.00" fill="#000000"> &#160;Declarations</text>
<polygon fill="#8dd3c7" stroke="transparent" points="178,-10 178,-30 198,-30 198,-10 178,-10"/>
<text text-anchor="start" x="201.7251" y="-15.4" font-family="sans-serif" font-size="14.00" fill="#000000"> &#160;Module</text>
<polygon fill="#80b1d3" stroke="transparent" points="264,-10 264,-30 284,-30 284,-10 264,-10"/>
<text text-anchor="start" x="287.7812" y="-15.4" font-family="sans-serif" font-size="14.00" fill="#000000"> &#160;Bootstrap</text>
<polygon fill="#fdb462" stroke="transparent" points="361,-10 361,-30 381,-30 381,-10 361,-10"/>
<text text-anchor="start" x="384.6732" y="-15.4" font-family="sans-serif" font-size="14.00" fill="#000000"> &#160;Providers</text>
<polygon fill="#fb8072" stroke="transparent" points="457,-10 457,-30 477,-30 477,-10 457,-10"/>
<text text-anchor="start" x="480.7258" y="-15.4" font-family="sans-serif" font-size="14.00" fill="#000000"> &#160;Exports</text>
<g id="clust1" class="cluster">
<title>cluster_AppModule</title>
<polygon fill="none" stroke="#000000" stroke-dasharray="1,5" points="8,-70 8,-274 282,-274 282,-70 8,-70"/>
</g>
<g id="clust2" class="cluster">
<title>cluster_AppModule_declarations</title>
<polygon fill="none" stroke="#000000" points="16,-78 16,-130 138,-130 138,-78 16,-78"/>
</g>
<g id="clust4" class="cluster">
<title>cluster_AppModule_imports</title>
<polygon fill="none" stroke="#000000" points="146,-78 146,-130 274,-130 274,-78 146,-78"/>
</g>
<g id="clust6" class="cluster">
<title>cluster_AppModule_bootstrap</title>
<polygon fill="none" stroke="#000000" points="82,-214 82,-266 206,-266 206,-214 82,-214"/>
</g>
<g id="clust8" class="cluster">
<title>cluster_NgxTrimModule</title>
<polygon fill="none" stroke="#000000" stroke-dasharray="1,5" points="290,-138 290,-206 590,-206 590,-138 290,-138"/>
</g>
<g id="clust9" class="cluster">
<title>cluster_NgxTrimModule_declarations</title>
<polygon fill="none" stroke="#000000" points="446,-146 446,-198 582,-198 582,-146 446,-146"/>
</g>
<g id="clust12" class="cluster">
<title>cluster_NgxTrimModule_exports</title>
<polygon fill="none" stroke="#000000" points="298,-146 298,-198 438,-198 438,-146 298,-146"/>
</g>
<!-- AppComponent -->
<g id="node1" class="node">
<title>AppComponent</title>
<polygon fill="#ffffb3" stroke="#000000" points="129.9399,-122 24.0601,-122 24.0601,-86 129.9399,-86 129.9399,-122"/>
<text text-anchor="middle" x="77" y="-99.8" font-family="Times,serif" font-size="14.00" fill="#000000">AppComponent</text>
</g>
<!-- AppModule -->
<g id="node2" class="node">
<title>AppModule</title>
<polygon fill="#8dd3c7" stroke="#000000" points="185.6571,-190 182.6571,-194 161.6571,-194 158.6571,-190 102.3429,-190 102.3429,-154 185.6571,-154 185.6571,-190"/>
<text text-anchor="middle" x="144" y="-167.8" font-family="Times,serif" font-size="14.00" fill="#000000">AppModule</text>
</g>
<!-- AppComponent&#45;&gt;AppModule -->
<g id="edge1" class="edge">
<title>AppComponent&#45;&gt;AppModule</title>
<path fill="none" stroke="#000000" d="M115.9457,-122.2228C115.9457,-122.2228 115.9457,-143.7269 115.9457,-143.7269"/>
<polygon fill="#000000" stroke="#000000" points="112.4457,-143.7269 115.9457,-153.7269 119.4457,-143.727 112.4457,-143.7269"/>
</g>
<!-- AppComponent  -->
<g id="node4" class="node">
<title>AppComponent </title>
<polygon fill="#80b1d3" stroke="#000000" points="198.439,-258 89.561,-258 89.561,-222 198.439,-222 198.439,-258"/>
<text text-anchor="middle" x="144" y="-235.8" font-family="Times,serif" font-size="14.00" fill="#000000">AppComponent </text>
</g>
<!-- AppModule&#45;&gt;AppComponent  -->
<g id="edge3" class="edge">
<title>AppModule&#45;&gt;AppComponent </title>
<path fill="none" stroke="#000000" stroke-dasharray="1,5" d="M144,-190.2228C144,-190.2228 144,-211.7269 144,-211.7269"/>
<polygon fill="#000000" stroke="#000000" points="140.5001,-211.7269 144,-221.7269 147.5001,-211.727 140.5001,-211.7269"/>
</g>
<!-- NgxTrimModule -->
<g id="node3" class="node">
<title>NgxTrimModule</title>
<polygon fill="#8dd3c7" stroke="#000000" points="265.6513,-122 262.6513,-126 241.6513,-126 238.6513,-122 154.3487,-122 154.3487,-86 265.6513,-86 265.6513,-122"/>
<text text-anchor="middle" x="210" y="-99.8" font-family="Times,serif" font-size="14.00" fill="#000000">NgxTrimModule</text>
</g>
<!-- NgxTrimModule&#45;&gt;AppModule -->
<g id="edge2" class="edge">
<title>NgxTrimModule&#45;&gt;AppModule</title>
<path fill="none" stroke="#000000" d="M170.0014,-122.2228C170.0014,-122.2228 170.0014,-143.7269 170.0014,-143.7269"/>
<polygon fill="#000000" stroke="#000000" points="166.5015,-143.7269 170.0014,-153.7269 173.5015,-143.727 166.5015,-143.7269"/>
</g>
<!-- NgxTrimDirective  -->
<g id="node6" class="node">
<title>NgxTrimDirective </title>
<polygon fill="#fb8072" stroke="#000000" points="429.6842,-190 306.3158,-190 306.3158,-154 429.6842,-154 429.6842,-190"/>
<text text-anchor="middle" x="368" y="-167.8" font-family="Times,serif" font-size="14.00" fill="#000000">NgxTrimDirective </text>
</g>
<!-- NgxTrimModule&#45;&gt;NgxTrimDirective  -->
<g id="edge5" class="edge">
<title>NgxTrimModule&#45;&gt;NgxTrimDirective </title>
<path fill="none" stroke="#000000" stroke-dasharray="5,2" d="M232.1475,-122.2228C232.1475,-142.3652 232.1475,-172 232.1475,-172 232.1475,-172 296.037,-172 296.037,-172"/>
<polygon fill="#000000" stroke="#000000" points="296.037,-175.5001 306.037,-172 296.0369,-168.5001 296.037,-175.5001"/>
</g>
<!-- NgxTrimDirective -->
<g id="node5" class="node">
<title>NgxTrimDirective</title>
<polygon fill="#ffffb3" stroke="#000000" points="574.1839,-190 453.8161,-190 453.8161,-154 574.1839,-154 574.1839,-190"/>
<text text-anchor="middle" x="514" y="-167.8" font-family="Times,serif" font-size="14.00" fill="#000000">NgxTrimDirective</text>
</g>
<!-- NgxTrimDirective&#45;&gt;NgxTrimModule -->
<g id="edge4" class="edge">
<title>NgxTrimDirective&#45;&gt;NgxTrimModule</title>
<path fill="none" stroke="#000000" d="M514,-153.7772C514,-133.6348 514,-104 514,-104 514,-104 275.7583,-104 275.7583,-104"/>
<polygon fill="#000000" stroke="#000000" points="275.7583,-100.5001 265.7583,-104 275.7583,-107.5001 275.7583,-100.5001"/>
</g>
</g>
</svg>
