<?xml version="1.0" encoding="UTF-8" standalone="no"?>
<!DOCTYPE svg PUBLIC "-//W3C//DTD SVG 1.1//EN"
 "http://www.w3.org/Graphics/SVG/1.1/DTD/svg11.dtd">
<!-- Generated by graphviz version 2.40.1 (20161225.0304)
 -->
<!-- Title: dependencies Pages: 1 -->
<svg width="504pt" height="284pt"
 viewBox="0.00 0.00 504.00 284.00" xmlns="http://www.w3.org/2000/svg" xmlns:xlink="http://www.w3.org/1999/xlink">
<g id="graph0" class="graph" transform="scale(1 1) rotate(0) translate(4 280)">
<title>dependencies</title>
<polygon fill="#ffffff" stroke="transparent" points="-4,4 -4,-280 500,-280 500,4 -4,4"/>
<text text-anchor="start" x="227.0091" y="-42.4" font-family="sans-serif" font-weight="bold" font-size="14.00" fill="#000000">Legend</text>
<polygon fill="#ffffb3" stroke="transparent" points="14,-10 14,-30 34,-30 34,-10 14,-10"/>
<text text-anchor="start" x="37.629" y="-15.4" font-family="sans-serif" font-size="14.00" fill="#000000"> &#160;Declarations</text>
<polygon fill="#8dd3c7" stroke="transparent" points="127,-10 127,-30 147,-30 147,-10 127,-10"/>
<text text-anchor="start" x="150.7251" y="-15.4" font-family="sans-serif" font-size="14.00" fill="#000000"> &#160;Module</text>
<polygon fill="#80b1d3" stroke="transparent" points="213,-10 213,-30 233,-30 233,-10 213,-10"/>
<text text-anchor="start" x="236.7812" y="-15.4" font-family="sans-serif" font-size="14.00" fill="#000000"> &#160;Bootstrap</text>
<polygon fill="#fdb462" stroke="transparent" points="310,-10 310,-30 330,-30 330,-10 310,-10"/>
<text text-anchor="start" x="333.6732" y="-15.4" font-family="sans-serif" font-size="14.00" fill="#000000"> &#160;Providers</text>
<polygon fill="#fb8072" stroke="transparent" points="406,-10 406,-30 426,-30 426,-10 406,-10"/>
<text text-anchor="start" x="429.7258" y="-15.4" font-family="sans-serif" font-size="14.00" fill="#000000"> &#160;Exports</text>
<g id="clust1" class="cluster">
<title>cluster_AppModule</title>
<polygon fill="none" stroke="#000000" stroke-dasharray="1,5" points="111,-70 111,-268 385,-268 385,-70 111,-70"/>
</g>
<g id="clust2" class="cluster">
<title>cluster_AppModule_declarations</title>
<polygon fill="none" stroke="#000000" points="255,-78 255,-130 377,-130 377,-78 255,-78"/>
</g>
<g id="clust4" class="cluster">
<title>cluster_AppModule_imports</title>
<polygon fill="none" stroke="#000000" points="119,-78 119,-130 247,-130 247,-78 119,-78"/>
</g>
<g id="clust6" class="cluster">
<title>cluster_AppModule_bootstrap</title>
<polygon fill="none" stroke="#000000" points="187,-208 187,-260 311,-260 311,-208 187,-208"/>
</g>
<!-- AppComponent -->
<g id="node1" class="node">
<title>AppComponent</title>
<polygon fill="#ffffb3" stroke="#000000" points="368.9399,-122 263.0601,-122 263.0601,-86 368.9399,-86 368.9399,-122"/>
<text text-anchor="middle" x="316" y="-99.8" font-family="Times,serif" font-size="14.00" fill="#000000">AppComponent</text>
</g>
<!-- AppModule -->
<g id="node2" class="node">
<title>AppModule</title>
<polygon fill="#8dd3c7" stroke="#000000" points="290.6571,-187 287.6571,-191 266.6571,-191 263.6571,-187 207.3429,-187 207.3429,-151 290.6571,-151 290.6571,-187"/>
<text text-anchor="middle" x="249" y="-164.8" font-family="Times,serif" font-size="14.00" fill="#000000">AppModule</text>
</g>
<!-- AppComponent&#45;&gt;AppModule -->
<g id="edge1" class="edge">
<title>AppComponent&#45;&gt;AppModule</title>
<path fill="none" stroke="#000000" d="M277.0544,-122.1061C277.0544,-122.1061 277.0544,-140.991 277.0544,-140.991"/>
<polygon fill="#000000" stroke="#000000" points="273.5544,-140.9909 277.0544,-150.991 280.5544,-140.991 273.5544,-140.9909"/>
</g>
<!-- AppComponent  -->
<g id="node4" class="node">
<title>AppComponent </title>
<polygon fill="#80b1d3" stroke="#000000" points="303.439,-252 194.561,-252 194.561,-216 303.439,-216 303.439,-252"/>
<text text-anchor="middle" x="249" y="-229.8" font-family="Times,serif" font-size="14.00" fill="#000000">AppComponent </text>
</g>
<!-- AppModule&#45;&gt;AppComponent  -->
<g id="edge3" class="edge">
<title>AppModule&#45;&gt;AppComponent </title>
<path fill="none" stroke="#000000" stroke-dasharray="1,5" d="M249,-187.1061C249,-187.1061 249,-205.991 249,-205.991"/>
<polygon fill="#000000" stroke="#000000" points="245.5001,-205.9909 249,-215.991 252.5001,-205.991 245.5001,-205.9909"/>
</g>
<!-- NgxTrimModule -->
<g id="node3" class="node">
<title>NgxTrimModule</title>
<polygon fill="#8dd3c7" stroke="#000000" points="238.6513,-122 235.6513,-126 214.6513,-126 211.6513,-122 127.3487,-122 127.3487,-86 238.6513,-86 238.6513,-122"/>
<text text-anchor="middle" x="183" y="-99.8" font-family="Times,serif" font-size="14.00" fill="#000000">NgxTrimModule</text>
</g>
<!-- NgxTrimModule&#45;&gt;AppModule -->
<g id="edge2" class="edge">
<title>NgxTrimModule&#45;&gt;AppModule</title>
<path fill="none" stroke="#000000" d="M222.9986,-122.1061C222.9986,-122.1061 222.9986,-140.991 222.9986,-140.991"/>
<polygon fill="#000000" stroke="#000000" points="219.4987,-140.9909 222.9986,-150.991 226.4987,-140.991 219.4987,-140.9909"/>
</g>
</g>
</svg>
